<svg version="1.1" id="Layer_1" xmlns="http://www.w3.org/2000/svg" xmlns:xlink="http://www.w3.org/1999/xlink" x="0px" y="0px"
	 width="418" height="418" viewBox="305 71 418 418" enable-background="new 305 71 418 418" xml:space="preserve">
<style>@media (prefers-color-scheme: dark){path{fill:#f4f4f4}}</style>

<path fill="#000000" opacity="1.000000" stroke="none" 
	d="
M481.558044,278.422729 
	C489.139069,284.452301 496.355560,290.369751 503.758759,296.043640 
	C523.061401,310.837341 548.632690,302.630859 555.874695,279.422699 
	C556.399475,277.740662 556.525513,275.389191 558.839966,275.255524 
	C567.172974,274.774200 574.148621,271.179901 581.010254,265.365234 
	C583.793640,271.674438 584.510620,277.647034 584.038330,283.726349 
	C582.910522,298.244904 578.098328,311.410339 568.233521,322.289520 
	C564.341736,326.581543 562.242126,331.347565 561.263672,336.881165 
	C560.189575,342.956116 557.130005,347.762726 551.518982,350.608643 
	C545.315918,353.754822 539.525024,352.654114 534.724609,347.613464 
	C523.548340,335.877716 510.822388,334.321442 497.070099,343.271790 
	C494.646973,344.848816 492.943695,344.610046 490.797333,343.114685 
	C485.057434,339.115753 479.213074,335.267120 473.450928,331.299713 
	C468.264465,327.728668 462.810760,327.191681 459.093536,329.992584 
	C455.528442,332.678894 454.434662,337.727203 456.282043,343.721497 
	C457.008820,346.079651 458.037537,348.344757 459.033447,350.923279 
	C456.549713,351.558868 455.143921,349.782532 453.696075,348.766266 
	C436.788177,336.898315 419.704132,325.259338 403.484619,312.452026 
	C382.200165,295.645386 371.227509,273.874023 372.768982,246.419586 
	C373.400879,235.164322 376.491150,224.454910 380.975983,214.167297 
	C381.998444,211.821899 382.110992,210.079544 380.847107,207.703461 
	C375.635437,197.905411 377.018829,186.678818 384.063538,178.825317 
	C391.193970,170.876221 401.875031,168.405304 412.355957,172.557556 
	C414.864990,173.551559 416.678131,173.143555 418.827393,171.794373 
	C423.533508,168.840164 428.054138,165.474258 433.453461,163.537811 
	C434.445099,165.973297 432.990723,167.176743 432.205170,168.508713 
	C422.664459,184.685165 421.505157,201.499222 428.648193,218.784698 
	C429.996674,222.047836 430.128754,224.439240 428.086151,227.490372 
	C423.470398,234.385208 420.821136,242.340866 417.099457,249.731094 
	C411.718872,260.415527 416.771576,273.731628 427.162720,280.114105 
	C437.284973,286.331421 449.665436,284.235046 457.867310,274.914917 
	C465.760315,265.945770 465.761169,265.944672 475.012665,273.235352 
	C477.105560,274.884705 479.190186,276.544586 481.558044,278.422729 
M394.643219,205.948853 
	C400.482025,209.701660 406.211578,209.689713 410.704681,205.915421 
	C415.522980,201.867935 417.003754,195.450851 414.454010,189.667358 
	C412.172516,184.492340 407.006775,181.605423 401.044861,182.307632 
	C395.943420,182.908493 392.483734,185.873581 390.616364,190.487686 
	C388.310974,196.183990 389.774109,201.205963 394.643219,205.948853 
z"/>
<path fill="#000000" opacity="1.000000" stroke="none" 
	d="
M616.748901,394.776550 
	C600.678955,408.094940 588.986328,415.286316 581.196838,416.702515 
	C580.210632,415.426666 581.267578,414.528229 581.848877,413.614685 
	C590.119629,400.616882 594.231506,386.423981 593.767700,371.024475 
	C593.658569,367.401917 594.822266,365.482727 598.006775,363.584808 
	C610.421936,356.185699 613.656006,339.563293 605.163635,327.933441 
	C603.678955,325.900269 603.105164,324.117767 603.506165,321.554077 
	C606.654175,301.426147 601.546326,283.314148 589.699219,266.953522 
	C586.755737,262.888611 586.023987,258.950775 588.103271,253.978195 
	C595.309631,236.744690 587.992188,218.242813 571.050720,210.480362 
	C567.714539,208.951736 566.188660,207.597504 567.936035,203.853134 
	C569.627930,200.227692 569.645569,196.139862 569.994263,192.448746 
	C571.096069,191.664398 571.900757,191.888428 572.583008,192.395187 
	C587.005310,203.108841 602.791321,212.000046 616.101990,224.178528 
	C636.667847,242.994965 648.666870,266.499451 652.298584,294.055115 
	C657.484741,333.406158 645.304810,366.849548 616.748901,394.776550 
z"/>
<path fill="#000000" opacity="1.000000" stroke="none" 
	d="
M453.712158,365.239380 
	C467.217255,375.336639 481.010773,384.382843 494.754852,393.494965 
	C509.569244,403.316711 525.824524,401.888794 536.426514,389.982941 
	C539.936707,386.041077 542.240112,381.394989 543.373962,376.313263 
	C544.003479,373.491913 545.176453,372.066956 548.008545,371.321777 
	C554.472473,369.621002 560.669067,367.144714 566.273315,363.413239 
	C568.189636,362.137329 569.849365,362.143524 571.757812,363.484222 
	C575.105042,365.835815 578.892761,367.120422 583.001953,367.115173 
	C586.555542,367.110657 587.317383,368.959686 587.395569,372.181580 
	C588.118774,401.972107 566.611084,431.568237 537.408203,441.135986 
	C515.015198,448.472656 493.768066,445.857941 473.300110,434.632812 
	C461.448334,428.133026 450.076324,420.889893 439.199219,412.880127 
	C436.947968,411.222321 434.792267,410.464081 431.892914,410.520691 
	C421.635712,410.720947 413.822723,406.184265 409.267975,396.958374 
	C404.673523,387.652191 405.408691,378.355499 411.718903,370.113251 
	C417.903137,362.035492 426.467743,359.046234 436.530243,360.821198 
	C439.299622,361.309692 441.947388,362.487335 444.574524,360.257935 
	C445.583954,359.401245 446.779205,360.219513 447.751068,360.927582 
	C449.636078,362.300934 451.528351,363.664337 453.712158,365.239380 
M432.298492,398.735718 
	C438.476410,398.203522 442.429291,394.746765 444.145142,389.000732 
	C445.692993,383.817169 444.317596,379.129700 440.245178,375.454620 
	C435.901672,371.534912 429.518402,370.980713 424.526642,373.941193 
	C419.527191,376.906219 417.150116,382.656677 418.493652,388.535645 
	C419.889526,394.643646 424.289764,398.105042 432.298492,398.735718 
z"/>
<path fill="#000000" opacity="1.000000" stroke="none" 
	d="
M603.511230,182.004974 
	C598.989258,180.532913 597.494385,184.260193 595.645996,186.380325 
	C592.160645,190.378128 589.551270,190.333466 585.342651,187.064438 
	C575.351196,179.303650 565.153137,171.732239 554.517456,164.894760 
	C537.006165,153.636978 513.291138,160.861557 507.169037,180.338669 
	C504.453308,188.978653 501.041077,193.882141 492.518494,195.944611 
	C489.619232,196.646210 487.112915,198.971451 484.045197,200.779877 
	C480.639343,195.097748 479.010925,189.268417 478.721405,183.079849 
	C477.423279,155.333496 490.696564,135.798233 514.216309,123.061134 
	C535.339844,111.621689 556.909363,111.425842 577.920044,124.213341 
	C583.612732,127.678047 589.408020,130.986023 594.971863,134.646118 
	C597.892517,136.567444 600.430542,136.969223 603.779968,135.616592 
	C613.566223,131.664505 622.695129,133.488571 630.068176,140.817459 
	C637.498047,148.202881 639.853577,157.420959 636.129761,167.481491 
	C632.485962,177.325989 624.974976,182.526306 614.654297,183.743790 
	C610.935364,184.182480 607.384094,183.195221 603.511230,182.004974 
M604.660095,168.917511 
	C610.801331,172.727982 616.720642,172.727585 621.255676,168.916458 
	C625.230469,165.576065 626.882263,159.303650 625.050720,154.376801 
	C623.047607,148.988281 618.957458,145.855804 613.437256,145.574463 
	C608.128479,145.303909 603.842957,147.902817 601.341125,152.853348 
	C598.816895,157.848221 599.831360,163.509140 604.660095,168.917511 
z"/>
<path fill="#000000" opacity="1.000000" stroke="none" 
	d="
M513.014893,284.127991 
	C504.514374,278.112305 503.482300,267.910919 509.334137,258.854797 
	C511.752594,255.112122 509.233459,245.948486 505.093170,244.130127 
	C503.417725,243.394272 501.741730,242.580246 499.982117,242.128311 
	C488.214935,239.106155 485.344269,225.001251 491.643768,215.349701 
	C494.271423,211.323761 504.672333,207.673004 508.807526,209.431793 
	C510.987885,210.359131 513.197693,211.616425 515.098206,209.124374 
	C517.213318,206.350967 521.092163,204.266037 519.291016,199.778091 
	C517.881348,196.265594 517.846069,192.990326 518.761414,189.157425 
	C520.687134,181.093536 527.144470,178.912384 533.468506,176.491913 
	C536.606689,175.290771 547.029907,180.359100 548.740173,183.427246 
	C552.156616,189.556183 553.455078,195.717758 549.774841,202.349319 
	C548.730591,204.231064 546.579651,206.144821 547.727722,208.723770 
	C549.622620,212.980392 551.647278,217.183624 553.768799,221.331848 
	C554.289673,222.350281 555.597229,221.693817 556.552612,221.796051 
	C565.317993,222.733994 572.181580,228.944641 574.061401,237.587128 
	C575.085815,242.296661 570.793640,250.959793 566.515198,253.266235 
	C561.116516,256.176544 556.067749,258.307861 549.709351,254.908707 
	C545.579834,252.701126 543.664795,257.865265 540.895691,259.918579 
	C538.876404,261.415802 538.166992,263.215729 539.102234,265.981415 
	C541.430298,272.865814 537.055725,281.068939 530.961670,284.749420 
	C524.637878,288.568604 519.136108,287.720642 513.014893,284.127991 
M535.930908,229.422287 
	C538.445679,229.630814 540.713623,232.064346 543.466370,228.711014 
	C546.112854,225.487137 544.536743,223.332550 543.299011,220.721680 
	C542.517822,219.073914 541.738342,217.421585 540.863037,215.823349 
	C540.080444,214.394363 539.723877,211.720215 538.297546,211.841553 
	C534.298340,212.181824 530.746948,208.610565 527.450928,209.780319 
	C524.163025,210.947174 520.614258,214.170547 520.578979,218.130768 
	C520.544434,222.009674 522.002197,225.993729 527.034607,226.904556 
	C529.793335,227.403854 532.460999,228.406616 535.930908,229.422287 
M518.580505,237.105255 
	C514.327881,241.768463 517.260132,250.813858 523.479309,252.406174 
	C525.237854,252.856445 527.017761,253.459991 528.591919,254.342621 
	C531.482910,255.963486 533.641113,255.086029 535.565308,252.801041 
	C537.898743,250.030167 542.049744,248.285400 540.416870,243.353958 
	C538.902039,238.778931 523.017273,233.651703 518.580505,237.105255 
z"/>
<path fill="#000000" opacity="1.000000" stroke="none" 
	d="
M478.091156,204.091400 
	C479.438507,206.176865 479.021698,207.735184 478.118958,209.545059 
	C469.381744,227.061813 473.258698,242.621658 489.195068,253.577774 
	C491.630768,255.252289 492.655060,256.730896 491.620422,259.685425 
	C490.754639,262.157776 490.484344,264.838684 489.979950,267.283936 
	C487.910736,268.027374 486.897919,266.697723 485.778961,265.816681 
	C474.784882,257.159973 463.690735,248.624069 452.873627,239.750809 
	C443.157135,231.780380 435.680634,222.153976 432.532806,209.641861 
	C428.526947,193.719269 431.566711,179.250061 441.495361,166.270081 
	C453.147461,151.036911 470.216370,143.588089 486.929291,135.058746 
	C472.282013,156.609406 465.272614,178.930130 478.091156,204.091400 
z"/>
<path fill="#000000" opacity="1.000000" stroke="none" 
	d="
M406.347107,360.625488 
	C395.678833,363.192474 387.523346,358.432465 385.593109,348.871582 
	C383.803619,340.007721 389.457855,331.944427 398.588715,330.339264 
	C405.983307,329.039337 413.293030,333.474365 415.764679,340.760468 
	C418.409149,348.556061 414.824585,356.352417 406.347107,360.625488 
z"/>
<path fill="#000000" opacity="1.000000" stroke="none" 
	d="
M524.752686,353.270874 
	C529.592041,359.247955 530.906006,365.394196 527.141541,372.009460 
	C523.859314,377.777344 518.540344,380.476288 512.142517,379.946136 
	C505.249176,379.374908 500.533264,375.333740 498.361359,368.651642 
	C496.367859,362.518433 498.902405,355.313263 504.311035,351.433197 
	C510.298676,347.137787 517.565491,347.705841 524.752686,353.270874 
z"/>
<path fill="#000000" opacity="1.000000" stroke="none" 
	d="
M569.754761,343.774048 
	C570.146301,334.216736 575.212524,328.100006 583.334900,326.929199 
	C590.675720,325.871002 597.981323,330.583527 600.281921,337.860962 
	C602.842285,345.960022 598.816650,354.398468 590.999329,357.318970 
	C582.959351,360.322693 574.663696,356.850616 571.186096,348.936340 
	C570.528320,347.439484 570.235962,345.782074 569.754761,343.774048 
z"/>
<path fill="#000000" opacity="1.000000" stroke="none" 
	d="
M431.748718,245.530411 
	C440.300110,241.505768 448.780762,243.766937 452.950073,250.913025 
	C457.208679,258.212097 455.089691,267.499298 448.117462,272.093597 
	C441.313202,276.577271 432.450073,275.170685 427.521027,268.824921 
	C421.643066,261.257507 423.193726,252.060989 431.748718,245.530411 
z"/>
<path fill="#000000" opacity="1.000000" stroke="none" 
	d="
M641.805176,191.057510 
	C648.076416,197.620834 649.160278,205.159286 645.030090,211.678909 
	C641.227600,217.681152 633.377563,220.408112 626.651794,217.915115 
	C621.061523,215.843002 617.524841,211.893204 616.752502,205.875839 
	C615.898560,199.223557 617.904846,193.585831 623.755920,189.971069 
	C629.740906,186.273605 635.769714,186.812210 641.805176,191.057510 
z"/>
</svg>